<svg width="72" height="72" viewBox="0 0 72 72" fill="none" xmlns="http://www.w3.org/2000/svg">
<g clip-path="url(#clip0_160_1147)">
<line x1="1.82702" y1="24.8195" x2="25.827" y2="1.81951" stroke="#1B96B8" stroke-width="0.5"/>
<line x1="-0.174339" y1="35.8208" x2="36.8257" y2="-0.179182" stroke="#1B96B8" stroke-width="0.5"/>
<line x1="0.825267" y1="43.8212" x2="44.8253" y2="0.821204" stroke="#1B96B8" stroke-width="0.5"/>
<line x1="6.81972" y1="56.8268" x2="55.8197" y2="5.8268" stroke="#1B96B8" stroke-width="0.5"/>
<line x1="2.82322" y1="49.8232" x2="49.8232" y2="2.82323" stroke="#1B96B8" stroke-width="0.5"/>
<line x1="0.826351" y1="28.8201" x2="29.8264" y2="0.820149" stroke="#1B96B8" stroke-width="0.5"/>
<line x1="-0.174525" y1="38.821" x2="39.8255" y2="-0.179" stroke="#1B96B8" stroke-width="0.5"/>
<line x1="1.82322" y1="46.8232" x2="46.8232" y2="1.82322" stroke="#1B96B8" stroke-width="0.5"/>
<line x1="7.82148" y1="58.825" x2="57.8215" y2="7.82498" stroke="#1B96B8" stroke-width="0.5"/>
<line x1="3.82141" y1="52.8251" x2="51.8214" y2="3.82505" stroke="#1B96B8" stroke-width="0.5"/>
<path d="M65 15.5L15 66.4996" stroke="#1B96B8" stroke-width="0.5"/>
<path d="M67 16.5L17 67.4996" stroke="#1B96B8" stroke-width="0.5"/>
<path d="M68 18.5L18 69.4996" stroke="#1B96B8" stroke-width="0.5"/>
<path d="M69 20.5L19 71.4996" stroke="#1B96B8" stroke-width="0.5"/>
<path d="M70 22.5L20 73.4996" stroke="#1B96B8" stroke-width="0.5"/>
<path d="M70 25.5L20 76.4996" stroke="#1B96B8" stroke-width="0.5"/>
<path d="M71 27.5L21 78.4996" stroke="#1B96B8" stroke-width="0.5"/>
<path d="M72 29.5L22 80.4996" stroke="#1B96B8" stroke-width="0.5"/>
<path d="M73 31.5L23 82.4996" stroke="#1B96B8" stroke-width="0.5"/>
<path d="M74 33.5L24 84.4996" stroke="#1B96B8" stroke-width="0.5"/>
<path d="M71.5001 39L25.0003 86.4992" stroke="#1B96B8" stroke-width="0.5"/>
<path d="M71.5 42L43 71.0001" stroke="#1B96B8" stroke-width="0.5"/>
<path d="M70.4998 46.0002L47 70.0002" stroke="#1B96B8" stroke-width="0.5"/>
<path d="M69.0003 50L50.9998 68.4998" stroke="#1B96B8" stroke-width="0.5"/>
<line x1="3.82866" y1="19.818" x2="20.8287" y2="3.81795" stroke="#1B96B8" stroke-width="0.5"/>
<line x1="-0.174119" y1="32.8206" x2="33.8259" y2="-0.179393" stroke="#1B96B8" stroke-width="0.5"/>
<line x1="0.825419" y1="40.8211" x2="41.8254" y2="0.821052" stroke="#1B96B8" stroke-width="0.5"/>
<line x1="4.82145" y1="54.825" x2="53.8214" y2="4.82501" stroke="#1B96B8" stroke-width="0.5"/>
<path d="M8 58.5C8.8 60.1 15.5 65.5 16 65.5L65 15.5C65.4 14.7 60.5 9.5 58 7.5L8 58.5Z" fill="#1B96B8"/>
</g>
<rect x="0.25" y="0.25" width="71.5" height="71.5" rx="35.75" stroke="#1B96B8" stroke-width="0.5"/>
<defs>
<clipPath id="clip0_160_1147">
<rect width="72" height="72" rx="36" fill="white"/>
</clipPath>
</defs>
</svg>
