<svg width="72" height="72" viewBox="0 0 72 72" fill="none" xmlns="http://www.w3.org/2000/svg">
<g clip-path="url(#clip0_160_1243)">
<circle cx="24" cy="36" r="23.5" transform="rotate(-180 24 36)" stroke="#1B96B8"/>
<path d="M31.5 19H40.5M29.5 21H42.5M28 23H44M27 25H45M26 27H46M25 29H47M24.5 31H47.5M24.5 33H47.5M24 35H48M24 37H48M24.5 39H47.5M24.5 41H47.5M25 43H47M26 45H46M27 47H45M28 49H44M29.5 51H42.5M31 53H40.5M33.5 55H38.5" stroke="#1B96B8"/>
<circle cx="48" cy="35.9999" r="23.5" stroke="#1B96B8"/>
<path d="M33.5 17H38.5" stroke="#1B96B8"/>
</g>
<defs>
<clipPath id="clip0_160_1243">
<rect width="72" height="72" fill="white"/>
</clipPath>
</defs>
</svg>
