<svg width="72" height="72" viewBox="0 0 72 72" fill="none" xmlns="http://www.w3.org/2000/svg">
<g clip-path="url(#clip0_160_1237)">
<path d="M52 31.7639L54.8868 26.7639H49.1132L52 31.7639ZM20.5 55V17H19.5V55H20.5ZM51.5 47.6667V55.0023H52.5V47.6667H51.5ZM51.5 16.9993V27.2639H52.5V16.9993H51.5ZM36 70.5C27.4396 70.5 20.5 63.5604 20.5 55H19.5C19.5 64.1127 26.8873 71.5 36 71.5V70.5ZM36 71.5C45.1126 71.5 52.5 64.1151 52.5 55.0023H51.5C51.5 63.5627 44.5605 70.5 36 70.5V71.5ZM36 1.5C44.5604 1.5 51.5 8.4389 51.5 16.9993H52.5C52.5 7.88655 45.1127 0.5 36 0.5V1.5ZM36 0.5C26.8873 0.5 19.5 7.8873 19.5 17H20.5C20.5 8.43959 27.4396 1.5 36 1.5V0.5Z" fill="#1B96B8"/>
<path d="M33.5694 20L28.5694 17.1132V22.8868L33.5694 20ZM55 51.5H17V52.5H55V51.5ZM47.6667 20.5H55.0023V19.5H47.6667V20.5ZM16.9987 20.5H29.0694V19.5H16.9987V20.5ZM70.5 36C70.5 44.5604 63.5604 51.5 55 51.5V52.5C64.1127 52.5 71.5 45.1127 71.5 36H70.5ZM71.5 36C71.5 26.8874 64.1151 19.5 55.0023 19.5V20.5C63.5627 20.5 70.5 27.4395 70.5 36H71.5ZM1.5 36C1.5 27.4395 8.43829 20.5 16.9987 20.5V19.5C7.8859 19.5 0.5 26.8874 0.5 36H1.5ZM0.5 36C0.5 45.1127 7.8873 52.5 17 52.5V51.5C8.43959 51.5 1.5 44.5604 1.5 36H0.5Z" fill="#1B96B8"/>
<circle cx="37.5" cy="37.5" r="5" fill="#1B96B8" stroke="#1B96B8"/>
</g>
<defs>
<clipPath id="clip0_160_1237">
<rect width="72" height="72" fill="white"/>
</clipPath>
</defs>
</svg>
