<svg width="72" height="72" viewBox="0 0 72 72" fill="none" xmlns="http://www.w3.org/2000/svg">
<g clip-path="url(#clip0_160_1209)">
<path d="M36 48.5C45.705 48.5 54.5123 47.1521 60.9109 44.9583C64.1078 43.8622 66.7307 42.5458 68.5644 41.0594C70.3939 39.5763 71.5 37.8697 71.5 36C71.5 34.1303 70.3939 32.4237 68.5644 30.9406C66.7307 29.4542 64.1078 28.1378 60.9109 27.0417C54.5123 24.8479 45.705 23.5 36 23.5C26.295 23.5 17.4877 24.8479 11.0891 27.0417C7.89224 28.1378 5.26932 29.4542 3.43562 30.9406C1.60608 32.4237 0.5 34.1303 0.5 36C0.5 37.8697 1.60608 39.5763 3.43562 41.0594C5.26932 42.5458 7.89224 43.8622 11.0891 44.9583C17.4877 47.1521 26.295 48.5 36 48.5Z" stroke="#1B96B8"/>
<path d="M23.5 36C23.5 45.705 24.8479 54.5123 27.0417 60.9109C28.1378 64.1078 29.4542 66.7307 30.9406 68.5644C32.4237 70.3939 34.1303 71.5 36 71.5C37.8697 71.5 39.5763 70.3939 41.0594 68.5644C42.5458 66.7307 43.8622 64.1078 44.9583 60.9109C47.1521 54.5123 48.5 45.705 48.5 36C48.5 26.295 47.1521 17.4877 44.9583 11.0891C43.8622 7.89224 42.5458 5.26932 41.0594 3.43562C39.5763 1.60608 37.8697 0.5 36 0.5C34.1303 0.5 32.4237 1.60608 30.9406 3.43562C29.4542 5.26932 28.1378 7.89224 27.0417 11.0891C24.8479 17.4877 23.5 26.295 23.5 36Z" stroke="#1B96B8"/>
<path d="M27.1612 44.8388C34.0236 51.7013 41.2045 56.9759 47.2803 59.9491C50.3158 61.4346 53.1013 62.3584 55.449 62.604C57.7914 62.849 59.7803 62.4244 61.1023 61.1023C62.4244 59.7802 62.849 57.7913 62.604 55.449C62.3585 53.1013 61.4346 50.3158 59.9491 47.2802C56.9759 41.2045 51.7013 34.0236 44.8389 27.1612C37.9764 20.2987 30.7956 15.0241 24.7198 12.0509C21.6842 10.5654 18.8987 9.64158 16.551 9.39601C14.2087 9.15099 12.2198 9.57566 10.8977 10.8977C9.57568 12.2198 9.15101 14.2087 9.39603 16.551C9.6416 18.8987 10.5654 21.6842 12.0509 24.7198C15.0242 30.7955 20.2987 37.9764 27.1612 44.8388Z" stroke="#1B96B8"/>
<path d="M47.2484 46.6918C54.1108 39.8294 59.3854 32.6485 62.3587 26.5728C63.8442 23.5372 64.768 20.7517 65.0136 18.404C65.2586 16.0617 64.8339 14.0728 63.5118 12.7507C62.1898 11.4287 60.2009 11.004 57.8585 11.249C55.5109 11.4946 52.7253 12.4184 49.6898 13.9039C43.614 16.8771 36.4332 22.1517 29.5707 29.0142C22.7083 35.8766 17.4337 43.0575 14.4604 49.1332C12.975 52.1688 12.0511 54.9543 11.8056 57.302C11.5605 59.6443 11.9852 61.6332 13.3073 62.9553C14.6293 64.2773 16.6182 64.702 18.9606 64.457C21.3082 64.2114 24.0938 63.2876 27.1293 61.8021C33.2051 58.8289 40.3859 53.5543 47.2484 46.6918Z" stroke="#1B96B8"/>
</g>
<defs>
<clipPath id="clip0_160_1209">
<rect width="72" height="72" fill="white"/>
</clipPath>
</defs>
</svg>
