<svg width="72" height="72" viewBox="0 0 72 72" fill="none" xmlns="http://www.w3.org/2000/svg">
<g clip-path="url(#clip0_160_1186)">
<rect x="0.706618" y="36.0004" width="49.9123" height="49.9123" transform="rotate(-45.0006 0.706618 36.0004)" stroke="#1B96B8"/>
<rect x="5.70686" y="36.0005" width="42.841" height="42.841" rx="3.5" transform="rotate(-45.0006 5.70686 36.0005)" stroke="#1B96B8"/>
<rect x="10.7069" y="36.0005" width="35.7698" height="35.7698" rx="3.5" transform="rotate(-45.0006 10.7069 36.0005)" stroke="#1B96B8"/>
<rect x="15.7071" y="36.0005" width="28.6985" height="28.6985" rx="3.5" transform="rotate(-45.0006 15.7071 36.0005)" stroke="#1B96B8"/>
<rect x="20.7069" y="36" width="21.6279" height="21.6279" rx="3.5" transform="rotate(-45.0006 20.7069 36)" stroke="#1B96B8"/>
<rect x="25.7076" y="36" width="14.5562" height="14.5562" rx="3.5" transform="rotate(-45.0006 25.7076 36)" stroke="#1B96B8"/>
<rect x="29.7069" y="36" width="8.89983" height="8.89983" rx="3.5" transform="rotate(-45.0006 29.7069 36)" stroke="#1B96B8"/>
<rect x="32.0002" y="36" width="5.65668" height="5.65668" rx="2.82834" transform="rotate(-45.0006 32.0002 36)" fill="#1B96B8"/>
</g>
<defs>
<clipPath id="clip0_160_1186">
<rect width="72" height="72" fill="white"/>
</clipPath>
</defs>
</svg>
