<svg width="72" height="72" viewBox="0 0 72 72" fill="none" xmlns="http://www.w3.org/2000/svg">
<g clip-path="url(#clip0_160_1198)">
<circle opacity="0.1" cx="35.5" cy="35.5" r="26" stroke="#1B96B8"/>
<path d="M7.5 36C7.5 28.4413 10.5027 21.1922 15.8475 15.8475C21.1922 10.5027 28.4413 7.5 36 7.5C43.5587 7.5 50.8078 10.5027 56.1525 15.8475C61.4973 21.1922 64.5 28.4413 64.5 36" stroke="#1B96B8" stroke-dasharray="4 4"/>
<path d="M4.5 36C4.5 27.6457 7.81874 19.6335 13.7261 13.7261C19.6335 7.81874 27.6457 4.5 36 4.5C44.3543 4.5 52.3665 7.81874 58.2739 13.7261C64.1813 19.6335 67.5 27.6457 67.5 36" stroke="#1B96B8"/>
<path d="M2.0738 41.7133C1.1977 36.714 1.43766 31.5829 2.7765 26.6872C4.11534 21.7916 6.51995 17.2524 9.81819 13.3948C13.1164 9.53712 17.2267 6.45633 21.8549 4.37296C26.483 2.28959 31.5145 1.25516 36.5891 1.34373" stroke="#1B96B8"/>
<path d="M39.269 1.5757C44.3125 2.14327 49.1683 3.81885 53.4886 6.48251C57.8089 9.14616 61.4869 12.732 64.2593 16.9833C67.0317 21.2347 68.8299 26.0463 69.5253 31.0739C70.2206 36.1015 69.7959 41.2206 68.2814 46.0648" stroke="#1B96B8" stroke-dasharray="1 1"/>
<path d="M14.9442 63.3667C8.98234 58.7588 4.69665 52.3224 2.74439 45.0448" stroke="#1B96B8" stroke-dasharray="1 1"/>
<path d="M67.8349 49.8953C65.8526 54.5676 62.8618 58.7438 59.0767 62.1251C55.2916 65.5064 50.8058 68.009 45.9403 69.4539C41.0749 70.8988 35.9502 71.2501 30.9331 70.4828C25.916 69.7155 21.1306 67.8486 16.9194 65.0155" stroke="#1B96B8"/>
<circle cx="35.5" cy="35.5" r="5" fill="#1B96B8" stroke="#1B96B8"/>
</g>
<defs>
<clipPath id="clip0_160_1198">
<rect width="72" height="72" fill="white"/>
</clipPath>
</defs>
</svg>
