<svg width="72" height="72" viewBox="0 0 72 72" fill="none" xmlns="http://www.w3.org/2000/svg">
<g clip-path="url(#clip0_160_1216)">
<circle cx="36" cy="36.0002" r="35.5" transform="rotate(-180 36 36.0002)" stroke="#1B96B8"/>
<path d="M6.5 36C6.5 16.3047 19.7891 0.5 36 0.5C52.2109 0.5 65.5 16.3047 65.5 36C65.5 55.6953 52.2109 71.5 36 71.5C19.7891 71.5 6.5 55.6953 6.5 36Z" stroke="#1B96B8"/>
<path d="M11.5 35.9998C11.5 26.1478 14.2739 17.2502 18.733 10.8291C23.1934 4.4062 29.3062 0.499756 36 0.499756C42.6938 0.499756 48.8066 4.4062 53.267 10.8291C57.7261 17.2502 60.5 26.1478 60.5 35.9998C60.5 45.8517 57.7261 54.7493 53.267 61.1704C48.8066 67.5933 42.6938 71.4998 36 71.4998C29.3062 71.4998 23.1934 67.5933 18.733 61.1704C14.2739 54.7493 11.5 45.8517 11.5 35.9998Z" stroke="#1B96B8"/>
<path d="M16.5 36C16.5 26.1275 18.7242 17.2143 22.2949 10.787C25.8751 4.3427 30.7412 0.5 36 0.5C41.2588 0.5 46.1249 4.3427 49.7051 10.787C53.2758 17.2143 55.5 26.1275 55.5 36C55.5 45.8725 53.2758 54.7857 49.7051 61.213C46.1249 67.6573 41.2588 71.5 36 71.5C30.7412 71.5 25.8751 67.6573 22.2949 61.213C18.7242 54.7857 16.5 45.8725 16.5 36Z" stroke="#1B96B8"/>
<circle cx="36.5" cy="36.5" r="5" fill="#1B96B8" stroke="#1B96B8"/>
</g>
<defs>
<clipPath id="clip0_160_1216">
<rect width="72" height="72" fill="white"/>
</clipPath>
</defs>
</svg>
