<svg width="64" height="48" viewBox="0 0 64 48" fill="none" xmlns="http://www.w3.org/2000/svg">
<path fill-rule="evenodd" clip-rule="evenodd" d="M20.752 40.7874H29.9342L32.2297 35.9942H39.3L39.0245 40.7874H47.1967V12.4805H36.1781L20.752 40.7874ZM33.9746 31.201H39.6676L39.943 19.9867L33.9746 31.201Z" fill="url(#paint0_linear_172_1944)"/>
<path d="M15.8426 40.6969H5.78479L20.7518 13.9274L21.5782 14.5605L22.1511 13.6738L22.1291 13.6561L22.2209 13.5657L22.1511 13.6738L23.1392 14.47L22.5882 15.3744L23.5983 16.1884L24.3329 15.0127L24.792 15.3744L25.6184 14.1083L26.7202 15.0127L26.9039 14.7414L26.9957 14.8318L25.6184 17.0023L26.7202 17.8162L27.4548 16.731L28.4648 17.4545L15.8426 40.6969Z" fill="#1B96B8"/>
<path d="M9.73314 9.0437H0L11.845 29.8443H21.5782L9.73314 9.0437Z" fill="#39BBE1" fill-opacity="0.86"/>
<path d="M27.6384 13.5655L26.5365 12.9325L27.2711 11.6664L25.8937 10.8524L25.3428 11.5759L24.3328 11.0333L26.261 7.59668L28.832 9.04368L28.0056 10.5811L28.832 11.1237L27.6384 13.5655Z" fill="#1B96B8"/>
<path d="M27.9141 15.3743L29.1996 16.2787L30.1689 14.47L29.5669 15.3743L28.465 14.47L27.9141 15.3743Z" fill="#1B96B8"/>
<path d="M19.0069 20.5292L17.905 19.7152L18.6396 18.5396L19.7415 19.3535L19.0069 20.5292Z" fill="white" fill-opacity="0.8"/>
<path d="M20.8437 21.8859L19.7418 21.0719L20.4764 19.8962L21.5783 20.7102L20.8437 21.8859Z" fill="white" fill-opacity="0.8"/>
<path d="M23.5983 22.4286L22.4965 21.6147L23.231 20.439L24.3329 21.2529L23.5983 22.4286Z" fill="white" fill-opacity="0.8"/>
<path d="M22.864 20.2577L21.7621 19.4438L22.4967 18.2681L23.5985 19.082L22.864 20.2577Z" fill="white" fill-opacity="0.8"/>
<path d="M21.0273 19.1727L19.9254 18.3588L20.66 17.1831L21.7619 17.997L21.0273 19.1727Z" fill="white"/>
<path d="M22.864 12.661L21.7621 11.8471L22.4967 10.6714L23.5985 11.4853L22.864 12.661Z" fill="#1B96B8"/>
<path d="M24.8838 8.68201L23.782 7.86807L24.5166 6.69238L25.6184 7.50632L24.8838 8.68201Z" fill="#1B96B8"/>
<path d="M26.5367 5.6073L25.4348 4.79336L26.1694 3.61768L27.2713 4.43161L26.5367 5.6073Z" fill="#1B96B8"/>
<path d="M28.5566 1.98962L27.4547 1.17569L28.1893 0L29.2912 0.813937L28.5566 1.98962Z" fill="#1B96B8"/>
<path d="M28.9241 4.70276L27.8223 3.88882L28.5568 2.71313L29.6587 3.52707L28.9241 4.70276Z" fill="#1B96B8"/>
<path d="M29.6585 7.05432L28.5566 6.24038L29.2912 5.0647L30.3931 5.87863L29.6585 7.05432Z" fill="#1B96B8"/>
<path d="M31.4948 9.94812L30.3929 9.13418L31.1275 7.9585L32.2294 8.77243L31.4948 9.94812Z" fill="#1B96B8"/>
<path d="M31.1276 13.5658L30.0258 12.7519L30.7603 11.5762L31.8622 12.3901L31.1276 13.5658Z" fill="#1B96B8"/>
<path d="M34.4335 7.23498L33.3317 6.42105L34.0662 5.24536L35.1681 6.0593L34.4335 7.23498Z" fill="#1B96B8"/>
<path d="M35.9023 3.79846L34.8004 2.98452L35.535 1.80884L36.6369 2.62277L35.9023 3.79846Z" fill="#1B96B8"/>
<path d="M25.4346 14.1083L24.3328 13.2943L25.0673 12.1187L26.1692 12.9326L25.4346 14.1083Z" fill="#1B96B8"/>
<path d="M24.8838 19.5345L23.782 18.7206L24.5166 17.5449L25.6184 18.3589L24.8838 19.5345Z" fill="white" fill-opacity="0.8"/>
<path d="M22.4964 25.5035L21.3945 24.6896L22.1291 23.5139L23.231 24.3279L22.4964 25.5035Z" fill="white" fill-opacity="0.8"/>
<path d="M23.4147 28.0355L22.3129 27.2216L23.0474 26.0459L24.1493 26.8598L23.4147 28.0355Z" fill="white" fill-opacity="0.8"/>
<path d="M25.8018 22.7902L24.7 21.9762L25.4345 20.8005L26.5364 21.6145L25.8018 22.7902Z" fill="white" fill-opacity="0.8"/>
<path d="M51.2367 40.5161V35.7229C55.4972 35.8676 56.1033 35.3611 56.1033 33.1906V12.4805H63.9081V33.1906C64 39.4308 62.6226 40.1543 57.5724 40.5161H51.2367Z" fill="url(#paint1_linear_172_1944)"/>
<path fill-rule="evenodd" clip-rule="evenodd" d="M17.3545 44.6649H15.8854V43.3988C15.8854 42.9466 15.4263 42.9466 15.4263 43.3988V46.6545C15.4263 47.1067 15.8854 47.1067 15.8854 46.6545V45.6597H17.3545V46.4736C17.3545 48.4633 14.0489 48.5537 13.8653 46.4736V43.9414C13.9571 41.59 17.3545 41.4996 17.3545 43.9414V44.6649ZM19.4665 42.3137V47.9208H20.8438V45.5695H21.4865V47.9208H22.8639V42.3137H21.4865V44.3033H20.8438V42.3137H19.4665ZM28.0059 47.9208V42.3137H29.7505C30.568 42.3137 31.1265 42.4946 31.1918 43.5798C31.3061 45.479 30.9142 45.6078 29.7505 45.6599H29.4751V47.9208H28.0059ZM29.4754 43.218V44.665C29.5673 44.665 29.8427 44.665 29.9346 44.4841C29.9805 44.3937 29.9652 43.4893 29.9346 43.3988C29.9099 43.3261 29.8427 43.218 29.4754 43.218ZM32.8723 42.3137H34.4333L34.8006 46.1121L35.1679 42.3137H36.7288L35.9943 47.9208H33.6987L32.8723 42.3137ZM41.5955 42.3137H38.2899V43.399H39.2081V47.9208H40.6773V43.399H41.5955V42.3137ZM48.7579 42.3137H50.227V46.7452H51.1452V47.9208H48.7579V42.3137ZM52.3387 42.3137H55.5525V43.399H54.7261V47.9208H53.2569V43.399H52.3387V42.3137ZM9.36606 42.3137V47.9208H11.9371V46.7452H10.8352V45.5695H11.7534V44.4842H10.8352V43.399H11.7534V42.3137H9.36606ZM7.34583 42.3137H4.22388V43.399H5.17781V47.9208H6.56534V43.399H7.34583V42.3137ZM42.6973 46.745H43.7992V47.9207H42.6973V46.745ZM57.5727 42.3136H59.1337L59.1822 42.3136C59.8346 42.3126 60.9701 42.3109 60.9701 43.7606V46.8355C60.9701 47.348 60.8783 47.9207 59.1337 47.9207H57.5727V42.3136ZM59.0417 43.3085V46.926C59.1948 46.9561 59.5009 46.9079 59.5009 46.4738V43.5798C59.5009 43.4893 59.409 43.3085 59.0417 43.3085ZM62.8981 46.745H64V47.9207H62.8981V46.745Z" fill="#81C242"/>
<defs>
<linearGradient id="paint0_linear_172_1944" x1="33.9743" y1="12.4805" x2="33.9743" y2="40.7874" gradientUnits="userSpaceOnUse">
<stop stop-color="#5DC9DB"/>
<stop offset="1" stop-color="#2A93CA"/>
</linearGradient>
<linearGradient id="paint1_linear_172_1944" x1="57.5745" y1="12.4805" x2="57.5745" y2="40.5161" gradientUnits="userSpaceOnUse">
<stop stop-color="#5DC9DB"/>
<stop offset="1" stop-color="#2A93CA"/>
</linearGradient>
</defs>
</svg>
