<svg width="52" height="49" viewBox="0 0 52 49" fill="none" xmlns="http://www.w3.org/2000/svg">
<path d="M33.5594 20.5549C32.2993 20.9529 30.7085 22.6734 29.8094 23.8094C29.6939 23.9552 29.8614 24.2142 30.0317 24.289C30.4866 24.4889 30.6372 25.1771 30.2132 25.8132C29.8054 26.4249 28.2098 27.5349 27.2109 28.177C27.0747 28.2646 27.0889 28.5011 27.2142 28.6038C27.7701 29.0596 28.3298 30.0396 27.1538 30.1154C24.1901 30.3066 24.8593 32.1231 27.8231 31.3583C32.3165 30.5934 35.5432 26.3868 36.2363 23.6143C36.7143 21.7022 35.3759 19.9813 33.5594 20.5549Z" fill="#081316"/>
<path d="M19.8881 28.5855C15.9874 27.6676 15.2671 22.4667 15.3946 19.981C17.0199 24.8569 21.7046 23.9964 24.9551 19.981C27.3261 17.6864 29.1618 14.3403 32.4123 14.3403C36.0071 14.7992 36.4277 18.9294 36.6189 21.2239C35.2805 19.1206 32.9859 19.4074 31.8387 20.5546L28.6837 23.7096C27.154 25.2393 24.0947 29.3503 19.8881 28.5855Z" fill="#081316"/>
<path d="M25.8155 7.83962C23.2342 10.6122 17.6891 21.3199 21.3221 22.1804C15.7387 23.5571 15.5539 18.8023 16.1594 16.2529C16.8478 13.5759 19.888 8.35589 20.1748 7.83962C20.5572 7.07478 24.1902 1.8165 26.0067 0C27.5364 1.14726 34.1332 11.377 35.0892 14.532C33.3301 13.0023 30.787 13.6397 29.7353 14.1496C29.1617 12.8111 26.4848 8.31764 25.8155 7.83962Z" fill="#081316"/>
<ellipse cx="24.6684" cy="28.8727" rx="1.24287" ry="0.860446" fill="#081316"/>
<path d="M5.5959 38.0192H4.74849C4.7159 37.8381 4.65524 37.6788 4.56651 37.5412C4.47779 37.4036 4.36915 37.2868 4.24059 37.1908C4.11203 37.0949 3.96808 37.0224 3.80873 36.9735C3.6512 36.9246 3.48371 36.9002 3.30626 36.9002C2.98577 36.9002 2.69877 36.9808 2.44528 37.1419C2.19359 37.3031 1.99441 37.5394 1.84774 37.8508C1.70289 38.1623 1.63046 38.5425 1.63046 38.9916C1.63046 39.4442 1.70289 39.8263 1.84774 40.1377C1.99441 40.4492 2.19449 40.6846 2.44799 40.8439C2.70149 41.0033 2.98668 41.0829 3.30355 41.0829C3.47919 41.0829 3.64577 41.0594 3.8033 41.0123C3.96264 40.9634 4.1066 40.8919 4.23516 40.7977C4.36371 40.7036 4.47236 40.5886 4.56108 40.4528C4.65162 40.3152 4.71409 40.1577 4.74849 39.9802L5.5959 39.9829C5.55063 40.2563 5.46281 40.508 5.33244 40.738C5.20388 40.9661 5.0382 41.1635 4.8354 41.3301C4.63441 41.4949 4.40446 41.6225 4.14553 41.7131C3.8866 41.8036 3.60413 41.8489 3.29812 41.8489C2.81647 41.8489 2.38733 41.7348 2.01071 41.5066C1.63408 41.2767 1.33713 40.948 1.11984 40.5207C0.904368 40.0934 0.796631 39.5837 0.796631 38.9916C0.796631 38.3977 0.905273 37.8879 1.12256 37.4624C1.33984 37.0351 1.6368 36.7074 2.01342 36.4792C2.39005 36.2493 2.81828 36.1343 3.29812 36.1343C3.59326 36.1343 3.86849 36.1768 4.1238 36.2619C4.38092 36.3452 4.61178 36.4684 4.81639 36.6313C5.021 36.7925 5.1903 36.9898 5.32429 37.2234C5.45828 37.4552 5.54882 37.7205 5.5959 38.0192Z" fill="#081316"/>
<path d="M12.0439 38.9916C12.0439 39.5855 11.9352 40.0961 11.718 40.5234C11.5007 40.9489 11.2028 41.2767 10.8244 41.5066C10.4478 41.7348 10.0195 41.8489 9.53969 41.8489C9.05804 41.8489 8.628 41.7348 8.24956 41.5066C7.87294 41.2767 7.57598 40.948 7.3587 40.5207C7.14141 40.0934 7.03277 39.5837 7.03277 38.9916C7.03277 38.3977 7.14141 37.8879 7.3587 37.4624C7.57598 37.0351 7.87294 36.7074 8.24956 36.4792C8.628 36.2493 9.05804 36.1343 9.53969 36.1343C10.0195 36.1343 10.4478 36.2493 10.8244 36.4792C11.2028 36.7074 11.5007 37.0351 11.718 37.4624C11.9352 37.8879 12.0439 38.3977 12.0439 38.9916ZM11.2128 38.9916C11.2128 38.5389 11.1394 38.1577 10.9928 37.8481C10.8479 37.5367 10.6487 37.3013 10.3952 37.1419C10.1436 36.9808 9.85837 36.9002 9.53969 36.9002C9.2192 36.9002 8.9331 36.9808 8.68142 37.1419C8.42973 37.3013 8.23055 37.5367 8.08388 37.8481C7.93903 38.1577 7.8666 38.5389 7.8666 38.9916C7.8666 39.4442 7.93903 39.8263 8.08388 40.1377C8.23055 40.4474 8.42973 40.6828 8.68142 40.8439C8.9331 41.0033 9.2192 41.0829 9.53969 41.0829C9.85837 41.0829 10.1436 41.0033 10.3952 40.8439C10.6487 40.6828 10.8479 40.4474 10.9928 40.1377C11.1394 39.8263 11.2128 39.4442 11.2128 38.9916Z" fill="#081316"/>
<path d="M13.7021 41.7728V36.2103H15.6848C16.1158 36.2103 16.4734 36.2846 16.7577 36.433C17.0438 36.5815 17.2574 36.787 17.3987 37.0496C17.5399 37.3103 17.6105 37.6118 17.6105 37.954C17.6105 38.2944 17.539 38.5941 17.396 38.853C17.2547 39.1102 17.0411 39.3102 16.755 39.4533C16.4707 39.5963 16.1131 39.6679 15.6821 39.6679H14.1801V38.9454H15.6061C15.8777 38.9454 16.0986 38.9065 16.2688 38.8286C16.4408 38.7507 16.5667 38.6376 16.6463 38.4891C16.726 38.3406 16.7658 38.1623 16.7658 37.954C16.7658 37.744 16.7251 37.562 16.6436 37.4081C16.5639 37.2542 16.4381 37.1365 16.2661 37.055C16.0959 36.9717 15.8722 36.9301 15.5952 36.9301H14.5414V41.7728H13.7021ZM16.4481 39.2632L17.8224 41.7728H16.8663L15.5192 39.2632H16.4481Z" fill="#081316"/>
<path d="M19.2436 41.7728V36.2103H21.2264C21.6591 36.2103 22.0176 36.2891 22.3019 36.4466C22.5862 36.6042 22.7989 36.8196 22.9402 37.093C23.0814 37.3647 23.152 37.6707 23.152 38.0111C23.152 38.3533 23.0805 38.6611 22.9375 38.9345C22.7962 39.2061 22.5826 39.4216 22.2965 39.5809C22.0122 39.7385 21.6546 39.8172 21.2236 39.8172H19.8602V39.1056H21.1476C21.421 39.1056 21.6428 39.0586 21.813 38.9644C21.9832 38.8684 22.1082 38.7381 22.1878 38.5733C22.2675 38.4085 22.3073 38.2211 22.3073 38.0111C22.3073 37.801 22.2675 37.6145 22.1878 37.4516C22.1082 37.2886 21.9823 37.1609 21.8103 37.0686C21.6401 36.9763 21.4156 36.9301 21.1367 36.9301H20.0829V41.7728H19.2436Z" fill="#081316"/>
<path d="M29.5797 38.9916C29.5797 39.5855 29.471 40.0961 29.2537 40.5234C29.0364 40.9489 28.7386 41.2767 28.3601 41.5066C27.9835 41.7348 27.5553 41.8489 27.0755 41.8489C26.5938 41.8489 26.1638 41.7348 25.7853 41.5066C25.4087 41.2767 25.1117 40.948 24.8945 40.5207C24.6772 40.0934 24.5685 39.5837 24.5685 38.9916C24.5685 38.3977 24.6772 37.8879 24.8945 37.4624C25.1117 37.0351 25.4087 36.7074 25.7853 36.4792C26.1638 36.2493 26.5938 36.1343 27.0755 36.1343C27.5553 36.1343 27.9835 36.2493 28.3601 36.4792C28.7386 36.7074 29.0364 37.0351 29.2537 37.4624C29.471 37.8879 29.5797 38.3977 29.5797 38.9916ZM28.7485 38.9916C28.7485 38.5389 28.6752 38.1577 28.5285 37.8481C28.3837 37.5367 28.1845 37.3013 27.931 37.1419C27.6793 36.9808 27.3941 36.9002 27.0755 36.9002C26.755 36.9002 26.4689 36.9808 26.2172 37.1419C25.9655 37.3013 25.7663 37.5367 25.6196 37.8481C25.4748 38.1577 25.4024 38.5389 25.4024 38.9916C25.4024 39.4442 25.4748 39.8263 25.6196 40.1377C25.7663 40.4474 25.9655 40.6828 26.2172 40.8439C26.4689 41.0033 26.755 41.0829 27.0755 41.0829C27.3941 41.0829 27.6793 41.0033 27.931 40.8439C28.1845 40.6828 28.3837 40.4474 28.5285 40.1377C28.6752 39.8263 28.7485 39.4442 28.7485 38.9916Z" fill="#081316"/>
<path d="M31.2379 41.7728V36.2103H33.2206C33.6516 36.2103 34.0092 36.2846 34.2934 36.433C34.5795 36.5815 34.7932 36.787 34.9344 37.0496C35.0757 37.3103 35.1463 37.6118 35.1463 37.954C35.1463 38.2944 35.0748 38.5941 34.9317 38.853C34.7905 39.1102 34.5768 39.3102 34.2907 39.4533C34.0065 39.5963 33.6488 39.6679 33.2179 39.6679H31.7159V38.9454H33.1418C33.4134 38.9454 33.6344 38.9065 33.8046 38.8286C33.9766 38.7507 34.1024 38.6376 34.1821 38.4891C34.2618 38.3406 34.3016 38.1623 34.3016 37.954C34.3016 37.744 34.2609 37.562 34.1794 37.4081C34.0997 37.2542 33.9739 37.1365 33.8018 37.055C33.6316 36.9717 33.408 36.9301 33.131 36.9301H32.0771V41.7728H31.2379ZM33.9838 39.2632L35.3581 41.7728H34.4021L33.0549 39.2632H33.9838Z" fill="#081316"/>
<path d="M37.2493 41.7728H36.3584L38.3601 36.2103H39.3298L41.3315 41.7728H40.4406L38.868 37.2207H38.8246L37.2493 41.7728Z" fill="#081316"/>
<path d="M41.815 36.9328V36.2103H46.12V36.9328H44.3844V41.7728H43.5479V36.9328H41.815Z" fill="#081316"/>
<path d="M47.6832 41.7728V36.2103H51.1706V36.9328H48.5224V38.6276H50.9886V39.3474H48.5224V41.0503H51.2032V41.7728H47.6832Z" fill="#081316"/>
<path d="M17.4973 44.7097V44.9704H16.5858V44.7097H17.4973ZM16.8303 44.3099H17.1551V45.8884C17.1551 45.9515 17.1645 45.9989 17.1834 46.0308C17.2022 46.0619 17.2265 46.0833 17.2561 46.0949C17.2866 46.1057 17.3195 46.1112 17.355 46.1112C17.3811 46.1112 17.4039 46.1093 17.4235 46.1057C17.443 46.1021 17.4582 46.0992 17.4691 46.097L17.5278 46.3654C17.5089 46.3726 17.4821 46.3799 17.4474 46.3871C17.4126 46.3951 17.3691 46.3994 17.317 46.4001C17.2315 46.4016 17.1519 46.3864 17.078 46.3545C17.0041 46.3226 16.9443 46.2734 16.8987 46.2068C16.8531 46.1401 16.8303 46.0565 16.8303 45.9558V44.3099ZM18.4647 46.4154C18.3589 46.4154 18.2633 46.3958 18.1779 46.3567C18.0924 46.3169 18.0247 46.2593 17.9747 46.1839C17.9254 46.1086 17.9008 46.0163 17.9008 45.9069C17.9008 45.8128 17.9189 45.7353 17.9551 45.6744C17.9914 45.6136 18.0402 45.5654 18.1018 45.5299C18.1634 45.4944 18.2322 45.4676 18.3082 45.4495C18.3843 45.4314 18.4618 45.4177 18.5407 45.4082C18.6407 45.3967 18.7218 45.3872 18.7841 45.38C18.8464 45.372 18.8916 45.3594 18.9199 45.342C18.9481 45.3246 18.9623 45.2963 18.9623 45.2572V45.2496C18.9623 45.1547 18.9355 45.0812 18.8819 45.0291C18.829 44.9769 18.75 44.9509 18.645 44.9509C18.5357 44.9509 18.4495 44.9751 18.3865 45.0237C18.3242 45.0715 18.2811 45.1247 18.2572 45.1834L17.9519 45.1138C17.9881 45.0124 18.041 44.9306 18.1105 44.8683C18.1808 44.8053 18.2615 44.7596 18.3528 44.7314C18.444 44.7024 18.54 44.6879 18.6407 44.6879C18.7073 44.6879 18.7779 44.6959 18.8525 44.7118C18.9279 44.7271 18.9981 44.7553 19.0633 44.7966C19.1292 44.8379 19.1832 44.8969 19.2252 44.9737C19.2672 45.0497 19.2882 45.1486 19.2882 45.2703V46.3784H18.9709V46.1503H18.9579C18.9369 46.1923 18.9054 46.2336 18.8634 46.2741C18.8214 46.3147 18.7674 46.3484 18.7015 46.3752C18.6356 46.402 18.5567 46.4154 18.4647 46.4154ZM18.5353 46.1546C18.6251 46.1546 18.7019 46.1369 18.7656 46.1014C18.8301 46.0659 18.879 46.0195 18.9123 45.9623C18.9463 45.9044 18.9633 45.8425 18.9633 45.7765V45.5614C18.9518 45.573 18.9293 45.5839 18.896 45.594C18.8634 45.6034 18.8261 45.6118 18.7841 45.619C18.7421 45.6255 18.7012 45.6317 18.6613 45.6375C18.6215 45.6425 18.5882 45.6469 18.5614 45.6505C18.4984 45.6585 18.4408 45.6719 18.3886 45.6907C18.3372 45.7095 18.2959 45.7367 18.2648 45.7722C18.2344 45.807 18.2191 45.8533 18.2191 45.9113C18.2191 45.9917 18.2488 46.0525 18.3082 46.0938C18.3676 46.1343 18.4433 46.1546 18.5353 46.1546ZM20.5429 47.039C20.4103 47.039 20.2963 47.0216 20.2007 46.9868C20.1058 46.952 20.0283 46.9061 19.9682 46.8488C19.908 46.7916 19.8631 46.729 19.8334 46.6609L20.1127 46.5457C20.1322 46.5776 20.1583 46.6113 20.1909 46.6468C20.2242 46.683 20.2691 46.7138 20.3256 46.7391C20.3828 46.7645 20.4563 46.7771 20.5461 46.7771C20.6693 46.7771 20.771 46.7471 20.8514 46.687C20.9318 46.6276 20.972 46.5327 20.972 46.4023V46.0742H20.9514C20.9318 46.1097 20.9036 46.1492 20.8666 46.1926C20.8304 46.2361 20.7804 46.2738 20.7167 46.3056C20.653 46.3375 20.57 46.3534 20.4679 46.3534C20.3361 46.3534 20.2173 46.3226 20.1116 46.2611C20.0065 46.1988 19.9233 46.1072 19.8617 45.9862C19.8009 45.8645 19.7704 45.715 19.7704 45.5375C19.7704 45.3601 19.8005 45.208 19.8606 45.0812C19.9214 44.9545 20.0047 44.8574 20.1105 44.7901C20.2162 44.722 20.3361 44.6879 20.4701 44.6879C20.5737 44.6879 20.6573 44.7053 20.7211 44.7401C20.7848 44.7741 20.8344 44.814 20.8699 44.8596C20.9061 44.9052 20.934 44.9454 20.9535 44.9802H20.9774V44.7097H21.2958V46.4154C21.2958 46.5588 21.2625 46.6765 21.1958 46.7684C21.1292 46.8604 21.039 46.9285 20.9253 46.9727C20.8123 47.0169 20.6848 47.039 20.5429 47.039ZM20.5396 46.084C20.6331 46.084 20.712 46.0623 20.7765 46.0188C20.8416 45.9746 20.8909 45.9116 20.9242 45.8298C20.9583 45.7472 20.9753 45.6483 20.9753 45.5332C20.9753 45.4209 20.9586 45.3221 20.9253 45.2366C20.892 45.1511 20.8431 45.0845 20.7786 45.0367C20.7142 44.9882 20.6345 44.9639 20.5396 44.9639C20.4418 44.9639 20.3604 44.9892 20.2952 45.0399C20.23 45.0899 20.1807 45.158 20.1474 45.2442C20.1148 45.3304 20.0985 45.4267 20.0985 45.5332C20.0985 45.6425 20.1152 45.7385 20.1485 45.8211C20.1818 45.9037 20.2311 45.9681 20.2963 46.0145C20.3622 46.0608 20.4433 46.084 20.5396 46.084ZM22.1786 44.1534V46.3784H21.8538V44.1534H22.1786ZM22.738 46.3784V44.7097H23.0629V46.3784H22.738ZM22.9021 44.4522C22.8456 44.4522 22.7971 44.4334 22.7565 44.3957C22.7167 44.3573 22.6967 44.3117 22.6967 44.2588C22.6967 44.2052 22.7167 44.1596 22.7565 44.1219C22.7971 44.0835 22.8456 44.0643 22.9021 44.0643C22.9586 44.0643 23.0067 44.0835 23.0466 44.1219C23.0871 44.1596 23.1074 44.2052 23.1074 44.2588C23.1074 44.3117 23.0871 44.3573 23.0466 44.3957C23.0067 44.4334 22.9586 44.4522 22.9021 44.4522ZM23.9471 45.3876V46.3784H23.6223V44.7097H23.9341V44.9813H23.9547C23.9931 44.8929 24.0532 44.8219 24.135 44.7683C24.2176 44.7147 24.3215 44.6879 24.4468 44.6879C24.5606 44.6879 24.6601 44.7118 24.7456 44.7597C24.8311 44.8067 24.8973 44.877 24.9444 44.9704C24.9915 45.0638 25.015 45.1794 25.015 45.317V46.3784H24.6902V45.3561C24.6902 45.2351 24.6587 45.1406 24.5957 45.0725C24.5327 45.0037 24.4461 44.9693 24.336 44.9693C24.2607 44.9693 24.1937 44.9856 24.135 45.0182C24.0771 45.0508 24.0311 45.0986 23.9971 45.1616C23.9638 45.2239 23.9471 45.2992 23.9471 45.3876ZM26.2923 46.4121C26.1279 46.4121 25.9863 46.377 25.8675 46.3067C25.7494 46.2357 25.6582 46.1361 25.5937 46.0079C25.53 45.879 25.4981 45.728 25.4981 45.5549C25.4981 45.384 25.53 45.2333 25.5937 45.103C25.6582 44.9726 25.748 44.8708 25.8631 44.7977C25.979 44.7245 26.1145 44.6879 26.2695 44.6879C26.3636 44.6879 26.4549 44.7035 26.5432 44.7347C26.6316 44.7658 26.7109 44.8147 26.7812 44.8813C26.8514 44.948 26.9068 45.0345 26.9474 45.141C26.988 45.2467 27.0082 45.3753 27.0082 45.5267V45.6418H25.6817V45.3985H26.6899C26.6899 45.313 26.6725 45.2373 26.6378 45.1714C26.603 45.1048 26.5541 45.0523 26.4911 45.0139C26.4288 44.9755 26.3557 44.9563 26.2716 44.9563C26.1804 44.9563 26.1007 44.9787 26.0326 45.0237C25.9653 45.0678 25.9131 45.1258 25.8762 45.1975C25.84 45.2685 25.8219 45.3456 25.8219 45.4289V45.619C25.8219 45.7305 25.8414 45.8254 25.8805 45.9037C25.9204 45.9819 25.9758 46.0416 26.0468 46.0829C26.1177 46.1235 26.2007 46.1438 26.2955 46.1438C26.3571 46.1438 26.4132 46.1351 26.4639 46.1177C26.5146 46.0996 26.5585 46.0728 26.5954 46.0373C26.6323 46.0018 26.6606 45.958 26.6801 45.9058L26.9876 45.9612C26.963 46.0518 26.9188 46.1311 26.8551 46.1992C26.792 46.2665 26.7127 46.319 26.6171 46.3567C26.5222 46.3936 26.414 46.4121 26.2923 46.4121ZM28.7479 45.3876V46.3784H28.4231V44.1534H28.7436V44.9813H28.7642C28.8033 44.8915 28.8631 44.8201 28.9435 44.7673C29.0239 44.7144 29.1289 44.6879 29.2585 44.6879C29.373 44.6879 29.4729 44.7115 29.5584 44.7586C29.6446 44.8056 29.7112 44.8759 29.7583 44.9693C29.8061 45.062 29.83 45.1779 29.83 45.317V46.3784H29.5051V45.3561C29.5051 45.2337 29.4736 45.1388 29.4106 45.0715C29.3476 45.0034 29.26 44.9693 29.1477 44.9693C29.0709 44.9693 29.0021 44.9856 28.9413 45.0182C28.8812 45.0508 28.8337 45.0986 28.799 45.1616C28.7649 45.2239 28.7479 45.2992 28.7479 45.3876ZM31.105 46.4121C30.9406 46.4121 30.799 46.377 30.6803 46.3067C30.5622 46.2357 30.4709 46.1361 30.4065 46.0079C30.3427 45.879 30.3109 45.728 30.3109 45.5549C30.3109 45.384 30.3427 45.2333 30.4065 45.103C30.4709 44.9726 30.5607 44.8708 30.6759 44.7977C30.7918 44.7245 30.9272 44.6879 31.0822 44.6879C31.1764 44.6879 31.2676 44.7035 31.356 44.7347C31.4444 44.7658 31.5237 44.8147 31.5939 44.8813C31.6642 44.948 31.7196 45.0345 31.7602 45.141C31.8007 45.2467 31.821 45.3753 31.821 45.5267V45.6418H30.4945V45.3985H31.5027C31.5027 45.313 31.4853 45.2373 31.4505 45.1714C31.4158 45.1048 31.3669 45.0523 31.3039 45.0139C31.2416 44.9755 31.1684 44.9563 31.0844 44.9563C30.9931 44.9563 30.9135 44.9787 30.8454 45.0237C30.778 45.0678 30.7259 45.1258 30.6889 45.1975C30.6527 45.2685 30.6346 45.3456 30.6346 45.4289V45.619C30.6346 45.7305 30.6542 45.8254 30.6933 45.9037C30.7331 45.9819 30.7885 46.0416 30.8595 46.0829C30.9305 46.1235 31.0134 46.1438 31.1083 46.1438C31.1699 46.1438 31.226 46.1351 31.2767 46.1177C31.3274 46.0996 31.3712 46.0728 31.4082 46.0373C31.4451 46.0018 31.4733 45.958 31.4929 45.9058L31.8004 45.9612C31.7757 46.0518 31.7315 46.1311 31.6678 46.1992C31.6048 46.2665 31.5255 46.319 31.4299 46.3567C31.335 46.3936 31.2267 46.4121 31.105 46.4121ZM32.3038 46.3784V44.7097H32.6178V44.9748H32.6352C32.6656 44.885 32.7192 44.8143 32.7959 44.7629C32.8734 44.7108 32.9611 44.6847 33.0589 44.6847C33.0791 44.6847 33.103 44.6854 33.1306 44.6869C33.1588 44.6883 33.1809 44.6901 33.1968 44.6923V45.003C33.1838 44.9994 33.1606 44.9954 33.1273 44.9911C33.094 44.986 33.0607 44.9835 33.0273 44.9835C32.9506 44.9835 32.8821 44.9997 32.822 45.0323C32.7626 45.0642 32.7155 45.1088 32.6808 45.166C32.646 45.2225 32.6286 45.2869 32.6286 45.3594V46.3784H32.3038ZM34.2598 46.4121C34.0954 46.4121 33.9538 46.377 33.835 46.3067C33.7169 46.2357 33.6257 46.1361 33.5612 46.0079C33.4975 45.879 33.4656 45.728 33.4656 45.5549C33.4656 45.384 33.4975 45.2333 33.5612 45.103C33.6257 44.9726 33.7155 44.8708 33.8306 44.7977C33.9465 44.7245 34.082 44.6879 34.237 44.6879C34.3311 44.6879 34.4224 44.7035 34.5107 44.7347C34.5991 44.7658 34.6784 44.8147 34.7487 44.8813C34.8189 44.948 34.8743 45.0345 34.9149 45.141C34.9554 45.2467 34.9757 45.3753 34.9757 45.5267V45.6418H33.6492V45.3985H34.6574C34.6574 45.313 34.64 45.2373 34.6053 45.1714C34.5705 45.1048 34.5216 45.0523 34.4586 45.0139C34.3963 44.9755 34.3231 44.9563 34.2391 44.9563C34.1479 44.9563 34.0682 44.9787 34.0001 45.0237C33.9328 45.0678 33.8806 45.1258 33.8437 45.1975C33.8075 45.2685 33.7894 45.3456 33.7894 45.4289V45.619C33.7894 45.7305 33.8089 45.8254 33.848 45.9037C33.8879 45.9819 33.9433 46.0416 34.0142 46.0829C34.0852 46.1235 34.1682 46.1438 34.263 46.1438C34.3246 46.1438 34.3807 46.1351 34.4314 46.1177C34.4821 46.0996 34.5259 46.0728 34.5629 46.0373C34.5998 46.0018 34.6281 45.958 34.6476 45.9058L34.9551 45.9612C34.9305 46.0518 34.8863 46.1311 34.8225 46.1992C34.7595 46.2665 34.6802 46.319 34.5846 46.3567C34.4897 46.3936 34.3815 46.4121 34.2598 46.4121Z" fill="#081316"/>
</svg>
