<svg width="251" height="325" viewBox="0 0 251 325" fill="none" xmlns="http://www.w3.org/2000/svg">
<path d="M167.992 236.869C122.253 232.169 88.2151 192.663 91.9426 148.649C95.6701 104.635 135.754 72.7455 181.493 77.4451C227.231 82.1447 261.269 121.65 257.542 165.664C253.814 209.679 213.73 241.568 167.992 236.869Z" stroke="#1B96B8" stroke-opacity="0.1" stroke-width="0.5"/>
<path d="M166.293 238.906C120.137 234.163 85.8347 193.645 89.6651 148.415C93.4955 103.186 134.009 70.3541 180.166 75.0967C226.323 79.8393 260.625 120.358 256.794 165.588C252.964 210.817 212.45 243.649 166.293 238.906Z" stroke="#1B96B8" stroke-opacity="0.1" stroke-width="0.5"/>
<path d="M88.2711 172.452C78.5991 126.168 108.241 81.8048 154.475 73.3613C200.709 64.9178 246.031 95.5911 255.703 141.875C265.375 188.159 235.733 232.522 189.499 240.966C143.265 249.41 97.9431 218.736 88.2711 172.452Z" stroke="#1B96B8" stroke-opacity="0.1" stroke-width="0.5"/>
<path d="M85.3207 172.655C75.3099 124.75 105.328 78.9607 152.354 70.3725C199.38 61.7844 245.625 93.6463 255.636 141.552C265.646 189.457 235.629 235.246 188.602 243.835C141.576 252.423 95.3315 220.561 85.3207 172.655Z" stroke="#1B96B8" stroke-opacity="0.1" stroke-width="0.5"/>
<path d="M82.1271 173.048C71.815 123.701 102.299 76.6185 150.194 67.8717C198.088 59.1248 245.285 92.0211 255.597 141.368C265.909 190.714 235.426 237.797 187.531 246.544C139.636 255.291 92.4391 222.395 82.1271 173.048Z" stroke="#1B96B8" stroke-opacity="0.1" stroke-width="0.5"/>
<path d="M169.276 234.156C124.541 229.56 91.2165 191.398 94.8118 148.944C98.4072 106.49 137.565 75.7759 182.3 80.3724C227.035 84.9689 260.36 123.131 256.765 165.585C253.169 208.038 214.011 238.753 169.276 234.156Z" stroke="#1B96B8" stroke-opacity="0.1" stroke-width="0.5"/>
</svg>
