<svg width="200" height="280" viewBox="0 0 200 280" fill="none" xmlns="http://www.w3.org/2000/svg">
<path d="M35.9138 65.5114C80.2962 57.9762 122.947 85.9192 131.198 127.893C139.45 169.868 110.185 210.02 65.803 217.555C21.4205 225.091 -21.2301 197.148 -29.4815 155.173C-37.7329 113.199 -8.46862 73.0466 35.9138 65.5114Z" stroke="#1B96B8" stroke-opacity="0.1" stroke-width="0.5"/>
<path d="M36.9701 63.1706C81.7584 55.5665 124.929 84.3847 133.408 127.518C141.887 170.652 112.47 211.794 67.6817 219.398C22.8934 227.002 -20.2772 198.184 -28.7564 155.05C-37.2357 111.917 -7.81809 70.7746 36.9701 63.1706Z" stroke="#1B96B8" stroke-opacity="0.1" stroke-width="0.5"/>
<path d="M128.296 104.76C149.788 145.362 133.702 194.415 92.368 214.324C51.0342 234.234 0.104141 217.46 -21.3873 176.859C-42.8788 136.257 -26.793 87.2038 14.5408 67.2945C55.8746 47.3852 106.805 64.159 128.296 104.76Z" stroke="#1B96B8" stroke-opacity="0.1" stroke-width="0.5"/>
<path d="M131.024 103.803C153.268 145.827 137.209 196.306 95.1669 216.557C53.125 236.807 1.00726 219.166 -21.2372 177.142C-43.4817 135.118 -27.4223 84.6386 14.6196 64.3883C56.6615 44.1379 108.779 61.7787 131.024 103.803Z" stroke="#1B96B8" stroke-opacity="0.1" stroke-width="0.5"/>
<path d="M133.93 102.605C156.844 145.894 140.691 197.7 97.8723 218.324C55.0537 238.949 1.7617 220.592 -21.1522 177.304C-44.0661 134.015 -27.9132 82.2091 14.9054 61.5846C57.724 40.9601 111.016 59.3165 133.93 102.605Z" stroke="#1B96B8" stroke-opacity="0.1" stroke-width="0.5"/>
<path d="M35.4274 68.3731C78.8361 61.0033 120.455 87.8803 128.414 128.366C136.373 168.852 107.668 207.668 64.2592 215.038C20.8506 222.408 -20.7687 195.531 -28.7275 155.045C-36.6862 114.56 -7.98119 75.743 35.4274 68.3731Z" stroke="#1B96B8" stroke-opacity="0.1" stroke-width="0.5"/>
</svg>
