<svg width="532" height="445" viewBox="0 0 532 445" fill="none" xmlns="http://www.w3.org/2000/svg">
<path d="M258.449 370.317C333.718 370.317 401.881 361.088 451.243 346.156C475.921 338.69 495.929 329.791 509.778 319.886C523.614 309.99 531.397 299.019 531.397 287.399C531.397 275.779 523.614 264.808 509.778 254.912C495.929 245.007 475.921 236.108 451.243 228.643C401.881 213.71 333.718 204.482 258.449 204.482C183.179 204.482 115.016 213.71 65.6535 228.643C40.9756 236.108 20.9683 245.007 7.11949 254.912C-6.71706 264.808 -14.5 275.779 -14.5 287.399C-14.5 299.019 -6.71706 309.99 7.11949 319.886C20.9683 329.791 40.9756 338.69 65.6535 346.156C115.016 361.088 183.179 370.317 258.449 370.317Z" stroke="#1B96B8" stroke-opacity="0.1"/>
<path d="M202.626 346.189C255.542 402.455 309.704 446.921 354.506 473.322C376.904 486.521 396.988 495.22 413.423 498.608C429.838 501.993 442.741 500.103 450.614 491.921C458.487 483.739 460.433 470.198 457.401 452.904C454.366 435.591 446.321 414.38 434.023 390.686C409.423 343.29 367.746 285.849 314.83 229.582C261.914 173.316 207.752 128.85 162.95 102.449C140.551 89.2501 120.468 80.5513 104.033 77.1625C87.6182 73.7776 74.7147 75.6675 66.8416 83.8495C58.9685 92.0315 57.023 105.573 60.0547 122.867C63.0901 140.18 71.1346 161.391 83.4331 185.085C108.033 232.481 149.71 289.922 202.626 346.189Z" stroke="#1B96B8" stroke-opacity="0.1"/>
<path d="M179.546 287.4C179.546 366.519 188.324 438.165 202.527 490.047C209.628 515.985 218.092 537.011 227.511 551.565C236.916 566.097 247.359 574.3 258.449 574.3C269.538 574.3 279.981 566.097 289.386 551.565C298.805 537.011 307.269 515.985 314.37 490.047C328.573 438.165 337.351 366.519 337.351 287.4C337.351 208.281 328.573 136.635 314.37 84.7526C307.269 58.815 298.805 37.7887 289.386 23.2351C279.981 8.70338 269.538 0.5 258.449 0.5C247.359 0.5 236.916 8.70338 227.511 23.2351C218.092 37.7887 209.628 58.815 202.527 84.7526C188.324 136.635 179.546 208.281 179.546 287.4Z" stroke="#1B96B8" stroke-opacity="0.1"/>
<path d="M202.986 228.426C149.46 284.052 107.16 340.988 82.0454 388.084C69.4895 411.629 61.2144 432.742 57.9906 450.018C54.7707 467.274 56.5686 480.838 64.3518 489.114C72.1349 497.39 85.0167 499.435 101.468 496.248C117.938 493.057 138.115 484.601 160.656 471.672C205.743 445.812 260.386 402.002 313.912 346.376C367.437 290.75 409.737 233.814 434.852 186.718C447.408 163.172 455.683 142.06 458.907 124.784C462.127 107.528 460.329 93.9643 452.545 85.6883C444.762 77.4124 431.88 75.3671 415.429 78.5542C398.959 81.7449 378.782 90.2014 356.241 103.13C311.154 128.99 256.511 172.8 202.986 228.426Z" stroke="#1B96B8" stroke-opacity="0.1"/>
</svg>
