<svg width="300" height="221" viewBox="0 0 300 221" fill="none" xmlns="http://www.w3.org/2000/svg">
<path d="M150 99.1704C191.44 99.1704 228.968 93.6926 256.144 84.8295C269.73 80.3984 280.743 75.1166 288.365 69.2397C295.983 63.3654 300.25 56.8659 300.25 49.9995C300.25 43.1331 295.983 36.6336 288.365 30.7593C280.743 24.8824 269.73 19.6006 256.144 15.1695C228.968 6.30642 191.44 0.828613 150 0.828613C108.56 0.828613 71.0323 6.30642 43.8565 15.1695C30.2699 19.6006 19.2568 24.8824 11.6351 30.7593C4.01684 36.6336 -0.25 43.1331 -0.25 49.9995C-0.25 56.8659 4.01684 63.3654 11.6351 69.2397C19.2568 75.1166 30.2699 80.3984 43.8565 84.8295C71.0323 93.6926 108.56 99.1704 150 99.1704Z" stroke="#1B96B8" stroke-opacity="0.1" stroke-width="0.5"/>
<path d="M119.29 84.8683C148.422 118.265 178.24 144.656 202.903 160.325C215.233 168.158 226.286 173.319 235.329 175.33C244.363 177.338 251.453 176.214 255.775 171.371C260.097 166.528 261.171 158.507 259.502 148.246C257.832 137.975 253.405 125.389 246.634 111.326C233.092 83.1974 210.149 49.1046 181.017 15.708C151.885 -17.6886 122.068 -44.0797 97.4051 -59.7485C85.0751 -67.5819 74.0214 -72.7432 64.9782 -74.7536C55.9444 -76.7619 48.855 -75.6377 44.5326 -70.7948C40.2102 -65.9519 39.1371 -57.9306 40.8056 -47.6699C42.4758 -37.3987 46.903 -24.8128 53.6732 -10.75C67.2152 17.3789 90.1585 51.4717 119.29 84.8683Z" stroke="#1B96B8" stroke-opacity="0.1" stroke-width="0.5"/>
<path d="M106.585 50C106.585 96.9587 111.417 139.48 119.235 170.27C123.144 185.662 127.802 198.137 132.984 206.769C138.157 215.386 143.899 220.25 150 220.25C156.101 220.25 161.844 215.386 167.016 206.769C172.199 198.137 176.857 185.662 180.765 170.27C188.583 139.48 193.416 96.9587 193.416 50C193.416 3.04128 188.583 -39.4804 180.765 -70.2697C176.857 -85.6624 172.199 -98.1369 167.016 -106.769C161.844 -115.386 156.101 -120.25 150 -120.25C143.899 -120.25 138.157 -115.386 132.984 -106.769C127.802 -98.1369 123.144 -85.6624 119.235 -70.2697C111.417 -39.4804 106.585 3.04128 106.585 50Z" stroke="#1B96B8" stroke-opacity="0.1" stroke-width="0.5"/>
<path d="M119.488 15.0224C90.0208 48.0387 66.7345 81.8316 52.9091 109.783C45.9972 123.757 41.4431 136.285 39.6692 146.534C37.8971 156.772 38.8892 164.807 43.162 169.705C47.4348 174.603 54.5122 175.82 63.5659 173.929C72.6288 172.036 83.7341 167.018 96.1425 159.345C120.962 143.998 151.044 117.995 180.512 84.9788C209.979 51.9625 233.266 18.1696 247.091 -9.78177C254.003 -23.7558 258.557 -36.2835 260.331 -46.5325C262.103 -56.771 261.111 -64.8054 256.838 -69.7037C252.565 -74.602 245.488 -75.8184 236.434 -73.9274C227.371 -72.0345 216.266 -67.017 203.858 -59.344C179.038 -43.9963 148.956 -17.9939 119.488 15.0224Z" stroke="#1B96B8" stroke-opacity="0.1" stroke-width="0.5"/>
</svg>
