<svg width="18" height="18" viewBox="0 0 18 18" fill="none" xmlns="http://www.w3.org/2000/svg">
<path fill-rule="evenodd" clip-rule="evenodd" d="M18 9C18 13.9706 13.9706 18 9 18C4.02944 18 0 13.9706 0 9C0 4.02944 4.02944 0 9 0C13.9706 0 18 4.02944 18 9ZM16.9846 9.5C16.7725 12.9392 14.3875 15.7905 11.1855 16.6978C11.5319 16.2202 11.8206 15.6401 12.0576 15.008C12.6091 13.5374 12.948 11.6045 12.9945 9.5H16.9846ZM16.9846 8.5H12.9945C12.948 6.39553 12.6091 4.46257 12.0576 2.99202C11.8206 2.35993 11.5319 1.77983 11.1855 1.30219C14.3875 2.2095 16.7725 5.06078 16.9846 8.5ZM11.9942 8.5C11.8974 4.31464 10.5939 1 9 1C7.40612 1 6.10255 4.31464 6.00576 8.5H11.9942ZM5.00551 8.5C5.05203 6.39553 5.39089 4.46257 5.94235 2.99202C6.17939 2.35993 6.46809 1.77983 6.81448 1.30219C3.6125 2.2095 1.22746 5.06078 1.01537 8.5H5.00551ZM1.01537 9.5H5.00551C5.05203 11.6045 5.39089 13.5374 5.94235 15.008C6.17939 15.6401 6.46809 16.2202 6.81448 16.6978C3.6125 15.7905 1.22746 12.9392 1.01537 9.5ZM6.00576 9.5H11.9942C11.8974 13.6854 10.5939 17 9 17C7.40612 17 6.10255 13.6854 6.00576 9.5Z" fill="white" fill-opacity="0.9"/>
</svg>
